<svg width="1600" height="1600" viewBox="0 0 1600 1600" fill="none" xmlns="http://www.w3.org/2000/svg">
  <defs>
    <linearGradient id="g1" x1="420" y1="320" x2="1220" y2="1260" gradientUnits="userSpaceOnUse">
      <stop stop-color="#37D5E8"/>
      <stop offset="0.52" stop-color="#4A58F4"/>
      <stop offset="1" stop-color="#38CDE7"/>
    </linearGradient>
    <linearGradient id="g2" x1="410" y1="520" x2="1110" y2="1240" gradientUnits="userSpaceOnUse">
      <stop stop-color="#4C45F7"/>
      <stop offset="1" stop-color="#4C9EEA"/>
    </linearGradient>
  </defs>
  <rect width="1600" height="1600" fill="transparent"/>
  <path d="M800 250C842 250 883 270 911 303L1352 818C1418 895 1443 1001 1419 1100C1395 1199 1325 1283 1231 1323C1137 1362 1030 1357 941 1310L800 1237L659 1310C570 1357 463 1362 369 1323C275 1283 205 1199 181 1100C157 1001 182 895 248 818L689 303C717 270 758 250 800 250Z" fill="url(#g1)"/>
  <path d="M503 571C531 534 572 510 617 508H783C836 508 876 545 884 596C891 648 865 695 819 716L571 847C522 872 492 923 492 978C492 1026 517 1071 559 1096C601 1121 652 1122 694 1099L821 1030C848 1016 879 1008 909 1008C939 1008 970 1016 997 1030L1126 1099C1168 1122 1219 1121 1261 1096C1303 1071 1328 1026 1328 978C1328 923 1298 872 1249 847L1001 716C955 695 929 648 936 596C944 545 984 508 1037 508H1133C1178 510 1219 534 1247 571L1300 642L1099 869L1040 804C1014 776 977 760 938 760C899 760 862 776 836 804L800 844L764 804C738 776 701 760 662 760C623 760 586 776 560 804L501 869L300 642L353 571Z" fill="url(#g2)"/>
  <path d="M420 1060L800 857L1180 1060C1229 1086 1254 1141 1241 1195C1228 1249 1180 1288 1125 1288H475C420 1288 372 1249 359 1195C346 1141 371 1086 420 1060Z" fill="url(#g1)"/>
</svg>
